<?xml version="1.0" encoding="UTF-8" standalone="no"?>
<svg
   xmlns:dc="http://purl.org/dc/elements/1.1/"
   xmlns:cc="http://creativecommons.org/ns#"
   xmlns:rdf="http://www.w3.org/1999/02/22-rdf-syntax-ns#"
   xmlns:svg="http://www.w3.org/2000/svg"
   xmlns="http://www.w3.org/2000/svg"
   xmlns:sodipodi="http://sodipodi.sourceforge.net/DTD/sodipodi-0.dtd"
   xmlns:inkscape="http://www.inkscape.org/namespaces/inkscape"
   id="svg2"
   xml:space="preserve"
   height="183.56313"
   width="282.46094"
   version="1.1"
   sodipodi:docname="opendatateam.svg"
   inkscape:version="0.92.0 r"><title
     id="title3697">Logo Open Data Team</title><sodipodi:namedview
     pagecolor="#ffffff"
     bordercolor="#666666"
     borderopacity="1"
     objecttolerance="10"
     gridtolerance="10"
     guidetolerance="10"
     inkscape:pageopacity="0"
     inkscape:pageshadow="2"
     inkscape:window-width="1920"
     inkscape:window-height="1029"
     id="namedview25"
     showgrid="false"
     fit-margin-top="0"
     fit-margin-left="0"
     fit-margin-right="0"
     fit-margin-bottom="0"
     inkscape:zoom="1.050338"
     inkscape:cx="494.28372"
     inkscape:cy="41.654034"
     inkscape:window-x="0"
     inkscape:window-y="25"
     inkscape:window-maximized="1"
     inkscape:current-layer="svg2" /><metadata
     id="metadata26"><rdf:RDF><cc:Work
         rdf:about=""><dc:format>image/svg+xml</dc:format><dc:type
           rdf:resource="http://purl.org/dc/dcmitype/StillImage" /><dc:title>Logo Open Data Team</dc:title><dc:subject><rdf:Bag><rdf:li>opendata</rdf:li><rdf:li>udata</rdf:li></rdf:Bag></dc:subject></cc:Work></rdf:RDF></metadata><desc
     id="desc4">Created with Fabric.js 1.6.0-rc.1</desc><defs
     id="defs6" /><g
     id="g8"
     transform="translate(141.19281,70.5)"><g
       id="g10"
       transform="translate(-70.5,-70.5)"
       style="opacity:1;fill:#646262;fill-rule:nonzero;stroke:none;stroke-width:1;stroke-linecap:butt;stroke-linejoin:miter;stroke-miterlimit:10;stroke-dasharray:none"><path
         id="path12"
         style="opacity:1;fill:#646262;fill-rule:nonzero;stroke:none;stroke-width:1;stroke-linecap:butt;stroke-linejoin:miter;stroke-miterlimit:10;stroke-dasharray:none"
         d="m 37.672,69.999 c 0,17.854 14.477,32.33 32.328,32.33 17.855,0 32.328,-14.475 32.328,-32.33 C 102.328,52.146 87.855,37.673 70,37.673 52.148,37.672 37.672,52.146 37.672,69.999 Z"
         inkscape:connector-curvature="0" /></g><g
       id="g14"
       transform="translate(-70.5,-70.5)"
       style="opacity:1;fill:#a1cc3a;fill-rule:nonzero;stroke:none;stroke-width:1;stroke-linecap:butt;stroke-linejoin:miter;stroke-miterlimit:10;stroke-dasharray:none"><path
         id="path16"
         style="opacity:1;fill:#a1cc3a;fill-rule:nonzero;stroke:none;stroke-width:1;stroke-linecap:butt;stroke-linejoin:miter;stroke-miterlimit:10;stroke-dasharray:none"
         d="m 120.67,21.795 v 48.204 c 0,27.985 -22.684,50.671 -50.67,50.671 -27.986,0 -50.672,-22.686 -50.672,-50.671 0,-27.984 22.686,-50.67 50.672,-50.67 12.291,0 23.557,4.381 32.328,11.658 V 7.949 C 92.652,2.897 81.674,0 70,0 31.34,0 0,31.34 0,69.999 0,108.658 31.34,140 70,140 c 38.658,0 70,-31.342 70,-70.001 0,-18.702 -7.379,-35.648 -19.33,-48.204 z"
         inkscape:connector-curvature="0" /></g></g><g
     id="g18"
     transform="translate(141.19281,167.5)"><g
       id="text20"
       style="font-weight:normal;font-size:35px;font-family:Comfortaa;opacity:1;fill:#646262;fill-rule:nonzero;stroke:none;stroke-width:1;stroke-linecap:butt;stroke-linejoin:miter;stroke-miterlimit:10;stroke-dasharray:none"><path
         id="path29"
         style="fill:#646262"
         d="m -127.52094,-16.749375 q -4.5288,0 -7.74169,3.212891 -3.19581,3.195801 -3.19581,7.7246091 0,4.5288086 3.19581,7.7416993 3.21289,3.1958007 7.74169,3.1958007 4.52881,0 7.72461,-3.1958007 3.21289,-3.2128907 3.21289,-7.7416993 0,-4.5288081 -3.21289,-7.7246091 -3.1958,-3.212891 -7.72461,-3.212891 z m 13.67188,10.9375001 q 0,5.65673831 -4.01611,9.6728516 -3.99903,3.9990234 -9.65577,3.9990234 -5.65673,0 -9.67285,-3.9990234 -3.99902,-4.01611329 -3.99902,-9.6728516 0,-5.6567381 3.99902,-9.6557621 4.01612,-4.016113 9.67285,-4.016113 5.65674,0 9.65577,4.016113 4.01611,3.999024 4.01611,9.6557621 z"
         inkscape:connector-curvature="0" /><path
         id="path31"
         style="fill:#646262"
         d="m -108.38031,-1.7103124 q 0,2.8369141 1.99951,4.8364258 1.99951,1.9995117 4.83643,1.9995117 2.836912,0 4.836423,-1.9995117 1.999512,-1.9995117 1.999512,-4.8364258 0,-2.836914 -1.999512,-4.8364257 -1.999511,-1.9995118 -4.836423,-1.9995118 -2.83692,0 -4.83643,1.9995118 -1.99951,1.9995117 -1.99951,4.8364257 z m 0,16.4062504 q 0,0.563964 -0.41016,0.957031 -0.39306,0.410156 -0.95703,0.410156 -0.56396,0 -0.97412,-0.410156 -0.39307,-0.393067 -0.39307,-0.957031 V -1.7103124 q 0,-3.9648437 2.80274,-6.7675781 2.80273,-2.8027345 6.76758,-2.8027345 3.964841,0 6.767576,2.8027345 2.802734,2.8027344 2.802734,6.7675781 0,3.9648438 -2.802734,6.7675782 -2.802735,2.8027343 -6.767576,2.8027343 -3.96485,0 -6.76758,-2.8027343 -0.0342,-0.03418 -0.0684,-0.068359 v 9.7070312 z"
         inkscape:connector-curvature="0" /><path
         id="path33"
         style="fill:#646262"
         d="m -72.953064,-3.0774999 q -0.375977,-1.965332 -1.879883,-3.4692382 -1.999511,-1.9995118 -4.836426,-1.9995118 -2.836914,0 -4.836425,1.9995118 -1.503907,1.5039062 -1.879883,3.4692382 z m -1.452637,6.2890625 q 0.563965,0 0.957032,0.4101563 0.410156,0.3930664 0.410156,0.9570312 0,0.5639649 -0.393067,0.9741211 -2.648925,2.3071289 -6.237793,2.3071289 -3.964843,0 -6.767578,-2.8027343 -2.802734,-2.8027344 -2.802734,-6.7675782 0,-3.9648437 2.802734,-6.7675781 2.802735,-2.8027345 6.767578,-2.8027345 3.964844,0 6.767579,2.8027345 2.802734,2.8027344 2.802734,6.7675781 0,0.5639649 -0.410156,0.97412113 -0.393067,0.3930664 -0.957032,0.3930664 h -14.919433 q 0.375976,1.96533207 1.879883,3.46923827 1.999511,1.9995117 4.836425,1.9995117 2.563477,0 4.40918,-1.6235351 0.375977,-0.2905274 0.854492,-0.2905274 z"
         inkscape:connector-curvature="0" /><path
         id="path35"
         style="fill:#646262"
         d="m -67.364685,-9.9134374 q 0,-0.5639646 0.393066,-0.9570316 0.410157,-0.410156 0.974121,-0.410156 0.563965,0 0.957032,0.410156 0.410156,0.393067 0.410156,0.9570316 v 1.1108399 q 2.563477,-2.4780275 6.152344,-2.4780275 3.674316,0 6.271972,2.6147462 2.614746,2.5976563 2.614746,6.2719727 v 8.8867187 q 0,0.5639649 -0.410156,0.9741211 -0.393066,0.3930664 -0.957031,0.3930664 -0.563965,0 -0.974121,-0.3930664 -0.393067,-0.4101562 -0.393067,-0.9741211 v -8.8867187 q 0,-2.5463867 -1.811523,-4.3408203 -1.794434,-1.8115235 -4.34082,-1.8115235 -2.546387,0 -4.35791,1.8115235 -1.794434,1.7944336 -1.794434,4.3408203 v 8.8867187 q 0,0.5639649 -0.410156,0.9741211 -0.393067,0.3930664 -0.957032,0.3930664 -0.563964,0 -0.974121,-0.3930664 -0.393066,-0.4101562 -0.393066,-0.9741211 z"
         inkscape:connector-curvature="0" /><path
         id="path37"
         style="fill:#646262"
         d="m -29.767029,5.1256251 q 4.528809,0 7.72461,-3.1958007 3.21289,-3.2128907 3.21289,-7.7416993 0,-4.5288081 -3.21289,-7.7246091 -3.195801,-3.212891 -7.72461,-3.212891 h -4.101562 V 5.1256251 Z m 0,-24.6093751 q 5.656738,0 9.655762,4.016113 4.016113,3.999024 4.016113,9.6557621 0,5.65673831 -4.016113,9.6728516 -3.999024,3.9990234 -9.655762,3.9990234 h -5.46875 q -0.563965,0 -0.974121,-0.3930664 -0.393066,-0.4101562 -0.393066,-0.9741211 V -18.116562 q 0,-0.563965 0.393066,-0.957032 0.410156,-0.410156 0.974121,-0.410156 z"
         inkscape:connector-curvature="0" /><path
         id="path39"
         style="fill:#646262"
         d="m -3.7904663,-8.5462499 q -2.8369141,0 -4.8364258,1.9995118 -1.9995119,1.9995117 -1.9995119,4.8364257 0,2.8369141 1.9995119,4.8364258 1.9995117,1.9995117 4.8364258,1.9995117 2.83691405,0 4.8364258,-1.9995117 1.9995117,-1.9995117 1.9995117,-4.8364258 0,-2.836914 -1.9995117,-4.8364257 -1.99951175,-1.9995118 -4.8364258,-1.9995118 z M 3.0454712,4.9889064 q -2.87109376,2.8710937 -6.8359375,2.8710937 -3.9648438,0 -6.7675777,-2.8027343 -2.802735,-2.8027344 -2.802735,-6.7675782 0,-3.9648437 2.802735,-6.7675781 2.8027339,-2.8027345 6.7675777,-2.8027345 3.96484374,0 6.7675781,2.8027345 2.8027344,2.8027344 2.8027344,6.7675781 v 8.203125 q 0,0.5639649 -0.4101563,0.9741211 -0.3930664,0.3930664 -0.9570312,0.3930664 -0.5639649,0 -0.9741211,-0.3930664 Q 3.0454712,7.0567775 3.0454712,6.4928126 Z"
         inkscape:connector-curvature="0" /><path
         id="path41"
         style="fill:#646262"
         d="m 16.580627,5.1256251 q 0.563965,0 0.957032,0.4101563 0.410156,0.3930664 0.410156,0.9570312 0,0.5639649 -0.410156,0.9741211 -0.393067,0.3930664 -0.957032,0.3930664 -6.8359371,0 -6.8359371,-6.8359375 V -8.5462499 H 8.3775024 q -0.5639648,0 -0.9741211,-0.3930664 -0.3930664,-0.4101562 -0.3930664,-0.9741211 0,-0.5639646 0.3930664,-0.9570316 0.4101563,-0.410156 0.9741211,-0.410156 h 1.3671875 v -6.835937 q 0,-0.563965 0.3930661,-0.957032 0.410157,-0.410156 0.974121,-0.410156 0.563965,0 0.957032,0.410156 0.410156,0.393067 0.410156,0.957032 v 6.835937 h 2.751465 q 0.563965,0 0.957031,0.410156 0.410156,0.393067 0.410156,0.9570316 0,0.5639649 -0.410156,0.9741211 -0.393066,0.3930664 -0.957031,0.3930664 h -2.751465 v 9.5703125 q 0,4.1015625 4.101562,4.1015625 z"
         inkscape:connector-curvature="0" /><path
         id="path43"
         style="fill:#646262"
         d="m 29.227112,-8.5462499 q -2.836914,0 -4.836426,1.9995118 -1.999512,1.9995117 -1.999512,4.8364257 0,2.8369141 1.999512,4.8364258 1.999512,1.9995117 4.836426,1.9995117 2.836914,0 4.836426,-1.9995117 1.999511,-1.9995117 1.999511,-4.8364258 0,-2.836914 -1.999511,-4.8364257 -1.999512,-1.9995118 -4.836426,-1.9995118 z m 6.835937,13.5351563 q -2.871093,2.8710937 -6.835937,2.8710937 -3.964844,0 -6.767578,-2.8027343 -2.802735,-2.8027344 -2.802735,-6.7675782 0,-3.9648437 2.802735,-6.7675781 2.802734,-2.8027345 6.767578,-2.8027345 3.964844,0 6.767578,2.8027345 2.802734,2.8027344 2.802734,6.7675781 v 8.203125 q 0,0.5639649 -0.410156,0.9741211 -0.393066,0.3930664 -0.957031,0.3930664 -0.563965,0 -0.974121,-0.3930664 -0.393067,-0.4101562 -0.393067,-0.9741211 z"
         inkscape:connector-curvature="0" /><path
         id="path45"
         style="fill:#646262"
         d="m 53.152893,-16.749375 q -0.563965,0 -0.974121,-0.393066 -0.393066,-0.410157 -0.393066,-0.974121 0,-0.563965 0.393066,-0.957032 0.410156,-0.410156 0.974121,-0.410156 h 17.773438 q 0.563964,0 0.957031,0.410156 0.410156,0.393067 0.410156,0.957032 0,0.563964 -0.410156,0.974121 -0.393067,0.393066 -0.957031,0.393066 H 63.406799 V 6.4928126 q 0,0.5639649 -0.410156,0.9741211 -0.393066,0.3930664 -0.957031,0.3930664 -0.563965,0 -0.974121,-0.3930664 Q 60.672424,7.0567775 60.672424,6.4928126 V -16.749375 Z"
         inkscape:connector-curvature="0" /><path
         id="path47"
         style="fill:#646262"
         d="m 86.460999,-3.0774999 q -0.375977,-1.965332 -1.879883,-3.4692382 -1.999512,-1.9995118 -4.836426,-1.9995118 -2.836914,0 -4.836426,1.9995118 -1.503906,1.5039062 -1.879883,3.4692382 z m -1.452637,6.2890625 q 0.563965,0 0.957031,0.4101563 0.410156,0.3930664 0.410156,0.9570312 0,0.5639649 -0.393066,0.9741211 -2.648926,2.3071289 -6.237793,2.3071289 -3.964844,0 -6.767578,-2.8027343 -2.802735,-2.8027344 -2.802735,-6.7675782 0,-3.9648437 2.802735,-6.7675781 2.802734,-2.8027345 6.767578,-2.8027345 3.964844,0 6.767578,2.8027345 2.802734,2.8027344 2.802734,6.7675781 0,0.5639649 -0.410156,0.97412113 -0.393066,0.3930664 -0.957031,0.3930664 H 73.028381 q 0.375977,1.96533207 1.879883,3.46923827 1.999512,1.9995117 4.836426,1.9995117 2.563477,0 4.40918,-1.6235351 0.375976,-0.2905274 0.854492,-0.2905274 z"
         inkscape:connector-curvature="0" /><path
         id="path49"
         style="fill:#646262"
         d="m 101.61969,-8.5462499 q -2.836914,0 -4.836426,1.9995118 -1.999512,1.9995117 -1.999512,4.8364257 0,2.8369141 1.999512,4.8364258 1.999512,1.9995117 4.836426,1.9995117 2.83691,0 4.83643,-1.9995117 1.99951,-1.9995117 1.99951,-4.8364258 0,-2.836914 -1.99951,-4.8364257 -1.99952,-1.9995118 -4.83643,-1.9995118 z m 6.83594,13.5351563 q -2.8711,2.8710937 -6.83594,2.8710937 -3.964844,0 -6.767578,-2.8027343 -2.802735,-2.8027344 -2.802735,-6.7675782 0,-3.9648437 2.802735,-6.7675781 2.802734,-2.8027345 6.767578,-2.8027345 3.96484,0 6.76758,2.8027345 2.80273,2.8027344 2.80273,6.7675781 v 8.203125 q 0,0.5639649 -0.41015,0.9741211 -0.39307,0.3930664 -0.95704,0.3930664 -0.56396,0 -0.97412,-0.3930664 -0.39306,-0.4101562 -0.39306,-0.9741211 z"
         inkscape:connector-curvature="0" /><path
         id="path51"
         style="fill:#646262"
         d="m 116.65875,6.4928126 q 0,0.5639649 -0.41015,0.9741211 -0.39307,0.3930664 -0.95704,0.3930664 -0.56396,0 -0.97412,-0.3930664 -0.39306,-0.4101562 -0.39306,-0.9741211 v -16.40625 q 0,-0.5639646 0.39306,-0.9570316 0.41016,-0.410156 0.97412,-0.410156 0.56397,0 0.95704,0.410156 0.41015,0.393067 0.41015,0.9570316 v 0.3588868 q 2.03369,-1.7260744 4.78516,-1.7260744 3.11035,0 5.31494,2.20459 0.46143,0.4614258 0.8374,0.9741211 0.37598,-0.5126953 0.8374,-0.9741211 2.20459,-2.20459 5.31495,-2.20459 3.11035,0 5.31494,2.20459 2.20459,2.2045898 2.20459,5.3149414 V 6.4928126 q 0,0.5639649 -0.41016,0.9741211 -0.39307,0.3930664 -0.95703,0.3930664 -0.56396,0 -0.97412,-0.3930664 -0.39307,-0.4101562 -0.39307,-0.9741211 V -3.7610936 q 0,-1.9824219 -1.40136,-3.3837891 -1.40137,-1.4013672 -3.38379,-1.4013672 -1.98243,0 -3.38379,1.4013672 -1.40137,1.4013672 -1.40137,3.3837891 V 6.4928126 q 0,0.5639649 -0.41016,0.9741211 -0.39306,0.3930664 -0.95703,0.3930664 -0.56396,0 -0.97412,-0.3930664 -0.39307,-0.4101562 -0.39307,-0.9741211 V -3.7610936 q 0,-1.9824219 -1.40136,-3.3837891 -1.40137,-1.4013672 -3.38379,-1.4013672 -1.98242,0 -3.38379,1.4013672 -1.40137,1.4013672 -1.40137,3.3837891 z"
         inkscape:connector-curvature="0" /></g></g></svg>