<?xml version="1.0" encoding="UTF-8" standalone="no"?>
<svg
   xmlns:dc="http://purl.org/dc/elements/1.1/"
   xmlns:cc="http://creativecommons.org/ns#"
   xmlns:rdf="http://www.w3.org/1999/02/22-rdf-syntax-ns#"
   xmlns:svg="http://www.w3.org/2000/svg"
   xmlns="http://www.w3.org/2000/svg"
   xmlns:sodipodi="http://sodipodi.sourceforge.net/DTD/sodipodi-0.dtd"
   xmlns:inkscape="http://www.inkscape.org/namespaces/inkscape"
   id="svg2"
   xml:space="preserve"
   height="140"
   width="140"
   version="1.1"
   sodipodi:docname="opendatateam-logo.svg"
   inkscape:version="0.92.0 r"><title
     id="title3697">Logo Open Data Team</title><sodipodi:namedview
     pagecolor="#ffffff"
     bordercolor="#666666"
     borderopacity="1"
     objecttolerance="10"
     gridtolerance="10"
     guidetolerance="10"
     inkscape:pageopacity="0"
     inkscape:pageshadow="2"
     inkscape:window-width="3200"
     inkscape:window-height="1698"
     id="namedview25"
     showgrid="false"
     fit-margin-top="0"
     fit-margin-left="0"
     fit-margin-right="0"
     fit-margin-bottom="0"
     inkscape:zoom="1.050338"
     inkscape:cx="77.987876"
     inkscape:cy="-1.9090916"
     inkscape:window-x="0"
     inkscape:window-y="50"
     inkscape:window-maximized="1"
     inkscape:current-layer="svg2" /><metadata
     id="metadata26"><rdf:RDF><cc:Work
         rdf:about=""><dc:format>image/svg+xml</dc:format><dc:type
           rdf:resource="http://purl.org/dc/dcmitype/StillImage" /><dc:title>Logo Open Data Team</dc:title><dc:subject><rdf:Bag><rdf:li>opendata</rdf:li><rdf:li>udata</rdf:li></rdf:Bag></dc:subject></cc:Work></rdf:RDF></metadata><desc
     id="desc4">Created with Fabric.js 1.6.0-rc.1</desc><defs
     id="defs6" /><g
     id="g8"
     transform="translate(70.5,70.5)"><g
       id="g10"
       transform="translate(-70.5,-70.5)"
       style="opacity:1;fill:#646262;fill-rule:nonzero;stroke:none;stroke-width:1;stroke-linecap:butt;stroke-linejoin:miter;stroke-miterlimit:10;stroke-dasharray:none"><path
         id="path12"
         style="opacity:1;fill:#646262;fill-rule:nonzero;stroke:none;stroke-width:1;stroke-linecap:butt;stroke-linejoin:miter;stroke-miterlimit:10;stroke-dasharray:none"
         d="m 37.672,69.999 c 0,17.854 14.477,32.33 32.328,32.33 17.855,0 32.328,-14.475 32.328,-32.33 C 102.328,52.146 87.855,37.673 70,37.673 52.148,37.672 37.672,52.146 37.672,69.999 Z"
         inkscape:connector-curvature="0" /></g><g
       id="g14"
       transform="translate(-70.5,-70.5)"
       style="opacity:1;fill:#a1cc3a;fill-rule:nonzero;stroke:none;stroke-width:1;stroke-linecap:butt;stroke-linejoin:miter;stroke-miterlimit:10;stroke-dasharray:none"><path
         id="path16"
         style="opacity:1;fill:#a1cc3a;fill-rule:nonzero;stroke:none;stroke-width:1;stroke-linecap:butt;stroke-linejoin:miter;stroke-miterlimit:10;stroke-dasharray:none"
         d="m 120.67,21.795 v 48.204 c 0,27.985 -22.684,50.671 -50.67,50.671 -27.986,0 -50.672,-22.686 -50.672,-50.671 0,-27.984 22.686,-50.67 50.672,-50.67 12.291,0 23.557,4.381 32.328,11.658 V 7.949 C 92.652,2.897 81.674,0 70,0 31.34,0 0,31.34 0,69.999 0,108.658 31.34,140 70,140 c 38.658,0 70,-31.342 70,-70.001 0,-18.702 -7.379,-35.648 -19.33,-48.204 z"
         inkscape:connector-curvature="0" /></g></g></svg>